<svg xmlns="http://www.w3.org/2000/svg" viewBox="0 0 498.1 498.1"><defs><style>.x{fill:none;stroke:#32cd32;stroke-miterlimit:9.9;stroke-width:2.5px}</style></defs><g id="b"><g id="c"><path id="d" d="M264 249.6c-4.7 136.8-15.3 248.1-23.6 248.6s-11.2-110-6.4-246.8v-2.9C238.8 111.8 249.4.5 257.7 0c8.3-.5 11.2 110 6.4 246.8v2.9h-.1Z" class="x"/><path id="e" d="M362.8 287.4c-43.7 129.7-130.1 217.7-192.9 196.5-62.8-21.2-78.3-143.5-34.6-273.2C179.1 81 265.4-7 328.3 14.2c62.8 21.2 78.3 143.5 34.6 273.2h-.1Z" class="x"/><path id="f" d="M383.8 387.2c-98 95.6-237.7 111.2-312.1 35S16.4 206.6 114.4 111 352.1-.3 426.5 76c74.4 76.3 55.3 215.6-42.7 311.1Z" class="x"/><path id="g" d="M278.7 37c135.6 19 232.2 129.3 215.8 246.4C478.1 400.5 355 480.1 219.4 461.1S-12.8 331.9 3.6 214.7 143.2 18.1 278.7 37Z" class="x"/><path id="h" d="M392 143.1c81.5 110 83.6 246.5 4.6 305.1-78.9 58.5-209 16.8-290.5-93.1-81.5-110-83.6-246.6-4.6-305.1s209-16.8 290.5 93.1Z" class="x"/><path id="i" d="M340.5 226.8c32.4 133 17.8 250.8-32.7 263.1s-117.7-85.5-150.1-218.5S139.9 20.6 190.4 8.3s117.7 85.5 150.1 218.5Z" class="x"/></g><g id="j"><path id="k" d="M308.4 457.5c.2 16.4-26.2 29.7-58.9 29.8-32.8.1-59.5-13.1-59.7-29.5v-.4c-.2-16.4 26.2-29.7 58.9-29.8 32.8-.1 59.5 13.1 59.7 29.5v.4Z" class="x"/><path id="l" d="M364.2 439.1c0 31.8-51.6 57.6-115.2 57.6s-115.2-25.8-115.2-57.6 51.6-57.6 115.2-57.6 115.2 25.8 115.2 57.6Z" class="x"/><path id="m" d="M413.4 409.7c.7 45.4-72.3 82.5-163.1 82.8-90.8.4-164.9-36.2-165.6-81.5v-1.3c-.7-45.4 72.3-82.5 163.1-82.8 90.8-.4 164.9 36.2 165.6 81.5v1.3Z" class="x"/><path id="n" d="M453 371c0 56.3-91.3 102-204 102S45 427.3 45 371s91.3-102 204-102 204 45.7 204 102Z" class="x"/><path id="o" d="M480.8 325.2c.8 64-102.2 116.2-230.2 116.6-128 .4-232.4-51.1-233.2-115.1v-1.5c-.8-64 102.2-116.2 230.2-116.6 128-.4 232.4 51.1 233.2 115.1v1.5Z" class="x"/><path id="p" d="M495.1 274.9c.6 67.9-109 123.3-244.9 123.6S3.7 344 3.1 276v-1.1C2.5 207 112.1 151.6 248 151.3s246.5 54.5 247.1 122.5v1.1Z" class="x"/><path id="q" d="M495.1 223.2c.6 67.9-109 123.3-244.9 123.6S3.7 292.3 3.1 224.3v-1.1C2.5 155.3 112.1 99.9 248 99.6c135.9-.3 246.5 54.5 247.1 122.5v1.1Z" class="x"/><path id="r" d="M480.8 173c.8 64-102.2 116.2-230.2 116.6-128 .4-232.4-51.1-233.2-115.1V173c-.8-64 102.2-116.2 230.2-116.6 128-.4 232.4 51.1 233.2 115.1v1.5Z" class="x"/><path id="s" d="M453 127.1c0 56.3-91.3 102-204 102s-203.9-45.6-203.9-102 91.3-101.9 204-101.9 204 45.7 204 102h-.1Z" class="x"/><path id="t" d="M413.4 88.4c.7 45.4-72.3 82.5-163.1 82.8-90.8.4-164.9-36.2-165.6-81.5v-1.3C84 43 157 5.9 247.8 5.6c90.8-.4 164.9 36.2 165.6 81.5v1.3Z" class="x"/><path id="u" d="M364.2 59c0 31.8-51.6 57.6-115.2 57.6S133.8 90.8 133.8 59 185.5 1.4 249.1 1.4 364.3 27.2 364.3 59Z" class="x"/><path id="v" d="M308.4 40.7c.2 16.4-26.2 29.7-58.9 29.8-32.8 0-59.5-13.1-59.7-29.5v-.4c-.2-16.4 26.2-29.7 58.9-29.8 32.8-.1 59.5 13.1 59.7 29.5v.4Z" class="x"/></g><path id="w" d="M496.9 249.1c0 136.9-111 247.8-247.8 247.8S1.2 385.9 1.2 249.1 112.2 1.2 249.1 1.2s247.8 111 247.8 247.8Z" class="x"/></g></svg>